<svg width="1330" height="429" viewBox="0 0 1330 429" fill="none" xmlns="http://www.w3.org/2000/svg">
<path d="M85.7143 171.427H214.286V257.142H85.7143V428.57H0V-0.00110245H257.143V85.7132H85.7143V171.427ZM300 -0.00110245H557.143V42.856H600V214.285H557.143V257.142H600V428.57H514.286V299.999H385.714V428.57H300V-0.00110245ZM514.286 214.285V85.7132H385.714V214.285H514.286ZM814.397 214.285H771.54V171.427H728.683V428.57H642.969V-0.00110245H728.683V42.856H771.54V85.7132H814.397V128.57H857.254V85.7132H900.112V42.856H942.969V-0.00110245H1028.68V428.57H942.969V171.427H900.112V214.285H857.254V257.142H814.397V214.285ZM1157.59 342.856H1329.02V428.57H1071.88V-0.00110245H1329.02V85.7132H1157.59V171.427H1286.16V257.142H1157.59V342.856Z" fill="#C4D600"/>
</svg>
